<svg xmlns="http://www.w3.org/2000/svg" viewBox="0 0 227.4 227.4"><circle cx="113.7" cy="113.7" r="108.7" fill="none" stroke="#fff" stroke-width="10" stroke-miterlimit="10"/><path d="M98 37.7v152.8c-39.5 0-71.8-33.9-74.4-76.7-.1 1.8-.2 3.6-.2 5.5 0 45.4 33.4 82.2 74.5 82.2 6.5 0 11.7-5.2 11.7-11.7V26C103.3 26 98 31.3 98 37.7zm31.3 152.7V36.9c39.5 0 71.8 33.9 74.4 76.7.1-1.8.2-3.6.2-5.5 0-45.4-33.5-82.2-74.6-82.2-6.5 0-11.7 5.2-11.7 11.7v152.1c0 6.5 5.2 11.7 11.7 11.7 41.1 0 74.6-36.8 74.6-82.2 0-1.9-.1-3.7-.2-5.5-2.6 42.8-34.9 76.7-74.4 76.7z" fill="#fff"/></svg>